<svg xmlns="http://www.w3.org/2000/svg" viewBox="0 0 800 480" fill="none">
  <rect width="800" height="480" rx="12" fill="#0f172a"/>
  <!-- Nav bar -->
  <rect width="800" height="48" rx="12" fill="#1e293b"/>
  <rect y="36" width="800" height="12" fill="#1e293b"/>
  <text x="60" y="30" fill="#6366f1" font-family="sans-serif" font-size="16" font-weight="bold">🛡️ AI Trust Validator</text>
  <text x="260" y="30" fill="#e2e8f0" font-family="sans-serif" font-size="13">Dashboard</text>
  <text x="360" y="30" fill="#94a3b8" font-family="sans-serif" font-size="13">Analytics</text>
  <text x="460" y="30" fill="#94a3b8" font-family="sans-serif" font-size="13">Reports</text>
  <text x="540" y="30" fill="#94a3b8" font-family="sans-serif" font-size="13">Settings</text>
  <!-- Score cards row -->
  <rect x="40" y="68" width="170" height="80" rx="10" fill="#1e293b" stroke="#334155"/>
  <text x="125" y="95" text-anchor="middle" fill="#94a3b8" font-family="sans-serif" font-size="12">Trust Score</text>
  <text x="125" y="130" text-anchor="middle" fill="#6366f1" font-family="sans-serif" font-size="28" font-weight="bold">76</text>

  <rect x="230" y="68" width="170" height="80" rx="10" fill="#1e293b" stroke="#334155"/>
  <text x="315" y="95" text-anchor="middle" fill="#94a3b8" font-family="sans-serif" font-size="12">Files Analyzed</text>
  <text x="315" y="130" text-anchor="middle" fill="#22c55e" font-family="sans-serif" font-size="28" font-weight="bold">1,247</text>

  <rect x="420" y="68" width="170" height="80" rx="10" fill="#1e293b" stroke="#334155"/>
  <text x="505" y="95" text-anchor="middle" fill="#94a3b8" font-family="sans-serif" font-size="12">Issues Found</text>
  <text x="505" y="130" text-anchor="middle" fill="#ef4444" font-family="sans-serif" font-size="28" font-weight="bold">89</text>

  <rect x="610" y="68" width="150" height="80" rx="10" fill="#1e293b" stroke="#334155"/>
  <text x="685" y="95" text-anchor="middle" fill="#94a3b8" font-family="sans-serif" font-size="12">Fix Rate</text>
  <text x="685" y="130" text-anchor="middle" fill="#eab308" font-family="sans-serif" font-size="28" font-weight="bold">94%</text>

  <!-- Bar chart area -->
  <rect x="40" y="168" width="440" height="290" rx="10" fill="#1e293b" stroke="#334155"/>
  <text x="60" y="195" fill="#e2e8f0" font-family="sans-serif" font-size="14" font-weight="bold">Score Distribution</text>
  <!-- Bars -->
  <text x="70" y="225" fill="#94a3b8" font-family="sans-serif" font-size="11">Security</text>
  <rect x="150" y="213" width="300" height="18" rx="4" fill="#22c55e" opacity="0.8"/>
  <text x="460" y="226" fill="#22c55e" font-family="sans-serif" font-size="11">82</text>

  <text x="70" y="260" fill="#94a3b8" font-family="sans-serif" font-size="11">Hallucinations</text>
  <rect x="150" y="248" width="200" height="18" rx="4" fill="#ef4444" opacity="0.8"/>
  <text x="360" y="261" fill="#ef4444" font-family="sans-serif" font-size="11">55</text>

  <text x="70" y="295" fill="#94a3b8" font-family="sans-serif" font-size="11">Logic</text>
  <rect x="150" y="283" width="280" height="18" rx="4" fill="#22c55e" opacity="0.8"/>
  <text x="440" y="296" fill="#22c55e" font-family="sans-serif" font-size="11">78</text>

  <text x="70" y="330" fill="#94a3b8" font-family="sans-serif" font-size="11">Best Practices</text>
  <rect x="150" y="318" width="260" height="18" rx="4" fill="#eab308" opacity="0.8"/>
  <text x="420" y="331" fill="#eab308" font-family="sans-serif" font-size="11">71</text>

  <text x="70" y="365" fill="#94a3b8" font-family="sans-serif" font-size="11">Performance</text>
  <rect x="150" y="353" width="310" height="18" rx="4" fill="#22c55e" opacity="0.8"/>
  <text x="470" y="366" fill="#22c55e" font-family="sans-serif" font-size="11">88</text>

  <text x="70" y="400" fill="#94a3b8" font-family="sans-serif" font-size="11">Type Safety</text>
  <rect x="150" y="388" width="240" height="18" rx="4" fill="#22c55e" opacity="0.8"/>
  <text x="400" y="401" fill="#22c55e" font-family="sans-serif" font-size="11">73</text>

  <!-- Treemap area -->
  <rect x="500" y="168" width="260" height="290" rx="10" fill="#1e293b" stroke="#334155"/>
  <text x="520" y="195" fill="#e2e8f0" font-family="sans-serif" font-size="14" font-weight="bold">Issue Categories</text>
  <!-- Treemap blocks -->
  <rect x="520" y="210" width="100" height="70" rx="6" fill="#ef4444" opacity="0.7"/>
  <text x="570" y="240" text-anchor="middle" fill="white" font-family="sans-serif" font-size="11" font-weight="bold">Security</text>
  <text x="570" y="258" text-anchor="middle" fill="white" font-family="sans-serif" font-size="18">32</text>

  <rect x="625" y="210" width="120" height="70" rx="6" fill="#6366f1" opacity="0.7"/>
  <text x="685" y="240" text-anchor="middle" fill="white" font-family="sans-serif" font-size="11" font-weight="bold">Hallucination</text>
  <text x="685" y="258" text-anchor="middle" fill="white" font-family="sans-serif" font-size="18">28</text>

  <rect x="520" y="285" width="130" height="60" rx="6" fill="#eab308" opacity="0.7"/>
  <text x="585" y="312" text-anchor="middle" fill="white" font-family="sans-serif" font-size="11" font-weight="bold">Logic</text>
  <text x="585" y="330" text-anchor="middle" fill="white" font-family="sans-serif" font-size="18">17</text>

  <rect x="655" y="285" width="90" height="60" rx="6" fill="#22c55e" opacity="0.7"/>
  <text x="700" y="312" text-anchor="middle" fill="white" font-family="sans-serif" font-size="11" font-weight="bold">Best Prac</text>
  <text x="700" y="330" text-anchor="middle" fill="white" font-family="sans-serif" font-size="18">12</text>

  <rect x="520" y="350" width="225" height="60" rx="6" fill="#94a3b8" opacity="0.3"/>
  <text x="632" y="377" text-anchor="middle" fill="#e2e8f0" font-family="sans-serif" font-size="11" font-weight="bold">Dependency Issues</text>
  <text x="632" y="395" text-anchor="middle" fill="#e2e8f0" font-family="sans-serif" font-size="18">8</text>
</svg>
