<svg xmlns="http://www.w3.org/2000/svg" viewBox="0 0 800 480" fill="none">
  <rect width="800" height="480" rx="12" fill="#1e1e2e"/>
  <!-- Title bar -->
  <rect width="800" height="36" rx="12" fill="#181825"/>
  <rect y="24" width="800" height="12" fill="#181825"/>
  <circle cx="20" cy="18" r="6" fill="#ef4444"/>
  <circle cx="40" cy="18" r="6" fill="#eab308"/>
  <circle cx="60" cy="18" r="6" fill="#22c55e"/>
  <text x="400" y="23" text-anchor="middle" fill="#cdd6f4" font-family="sans-serif" font-size="12">generated_code.py — AI Trust Validator — Visual Studio Code</text>
  <!-- Sidebar -->
  <rect y="36" width="48" height="444" fill="#181825"/>
  <rect x="8" y="48" width="32" height="32" rx="4" fill="#313244"/>
  <text x="24" y="69" text-anchor="middle" fill="#cdd6f4" font-size="16">📄</text>
  <rect x="8" y="88" width="32" height="32" rx="4" fill="#313244"/>
  <text x="24" y="109" text-anchor="middle" fill="#cdd6f4" font-size="16">🔍</text>
  <rect x="8" y="128" width="32" height="32" rx="4" fill="#313244"/>
  <text x="24" y="149" text-anchor="middle" fill="#cdd6f4" font-size="16">🔀</text>
  <rect x="8" y="168" width="32" height="32" rx="4" fill="#6366f1" opacity="0.4"/>
  <text x="24" y="189" text-anchor="middle" fill="#cdd6f4" font-size="16">🛡️</text>
  <!-- Explorer panel -->
  <rect x="48" y="36" width="180" height="444" fill="#1e1e2e"/>
  <text x="60" y="58" fill="#cdd6f4" font-family="sans-serif" font-size="11" font-weight="bold">EXPLORER</text>
  <text x="60" y="80" fill="#cdd6f4" font-family="sans-serif" font-size="11">▼ src/</text>
  <text x="75" y="98" fill="#f9e2af" font-family="monospace" font-size="11">  🐍 generated_code.py</text>
  <text x="75" y="116" fill="#89b4fa" font-family="monospace" font-size="11">  📄 app.js</text>
  <text x="75" y="134" fill="#89b4fa" font-family="monospace" font-size="11">  📄 utils.ts</text>
  <!-- Code area -->
  <rect x="228" y="36" width="420" height="444" fill="#1e1e2e"/>
  <!-- Line numbers -->
  <text x="242" y="62" fill="#585b70" font-family="monospace" font-size="12">1</text>
  <text x="242" y="80" fill="#585b70" font-family="monospace" font-size="12">2</text>
  <text x="242" y="98" fill="#585b70" font-family="monospace" font-size="12">3</text>
  <text x="242" y="116" fill="#585b70" font-family="monospace" font-size="12">4</text>
  <text x="242" y="134" fill="#585b70" font-family="monospace" font-size="12">5</text>
  <text x="242" y="152" fill="#585b70" font-family="monospace" font-size="12">6</text>
  <text x="242" y="170" fill="#585b70" font-family="monospace" font-size="12">7</text>
  <text x="242" y="188" fill="#585b70" font-family="monospace" font-size="12">8</text>
  <text x="242" y="206" fill="#585b70" font-family="monospace" font-size="12">9</text>
  <text x="236" y="224" fill="#585b70" font-family="monospace" font-size="12">10</text>
  <text x="236" y="242" fill="#585b70" font-family="monospace" font-size="12">11</text>
  <text x="236" y="260" fill="#585b70" font-family="monospace" font-size="12">12</text>
  <text x="236" y="278" fill="#585b70" font-family="monospace" font-size="12">13</text>
  <text x="236" y="296" fill="#585b70" font-family="monospace" font-size="12">14</text>
  <text x="236" y="314" fill="#585b70" font-family="monospace" font-size="12">15</text>
  <text x="236" y="332" fill="#585b70" font-family="monospace" font-size="12">16</text>
  <!-- Code -->
  <text x="268" y="62" fill="#cba6f7" font-family="monospace" font-size="12">import</text>
  <text x="320" y="62" fill="#f9e2af" font-family="monospace" font-size="12">os</text>
  <text x="268" y="80" fill="#cba6f7" font-family="monospace" font-size="12">import</text>
  <text x="320" y="80" fill="#f9e2af" font-family="monospace" font-size="12">fancy_lib</text>
  <text x="268" y="98" fill="#cba6f7" font-family="monospace" font-size="12">import</text>
  <text x="320" y="98" fill="#f9e2af" font-family="monospace" font-size="12">requests</text>
  <text x="268" y="134" fill="#cba6f7" font-family="monospace" font-size="12">def</text>
  <text x="298" y="134" fill="#89b4fa" font-family="monospace" font-size="12">get_user</text>
  <text x="375" y="134" fill="#cdd6f4" font-family="monospace" font-size="12">(user_id):</text>
  <text x="282" y="170" fill="#f9e2af" font-family="monospace" font-size="12">api_key</text>
  <text x="332" y="170" fill="#cdd6f4" font-family="monospace" font-size="12">=</text>
  <text x="342" y="170" fill="#a6e3a1" font-family="monospace" font-size="12">"sk-abc123secret"</text>
  <text x="282" y="206" fill="#f9e2af" font-family="monospace" font-size="12">query</text>
  <text x="322" y="206" fill="#cdd6f4" font-family="monospace" font-size="12">=</text>
  <text x="332" y="206" fill="#a6e3a1" font-family="monospace" font-size="12">f"SELECT * FROM users WHERE id={user_id}"</text>
  <text x="282" y="242" fill="#f9e2af" font-family="monospace" font-size="12">result</text>
  <text x="332" y="242" fill="#cdd6f4" font-family="monospace" font-size="12">=</text>
  <text x="342" y="242" fill="#89b4fa" font-family="monospace" font-size="12">quick_sort_v2</text>
  <text x="450" y="242" fill="#cdd6f4" font-family="monospace" font-size="12">(data)</text>
  <!-- Error squiggles -->
  <path d="M318 84 Q330 88 342 84" stroke="#ef4444" stroke-width="2" fill="none"/>
  <path d="M330 172 Q398 178 466 172" stroke="#ef4444" stroke-width="2" fill="none"/>
  <path d="M330 208 Q498 214 660 208" stroke="#ef4444" stroke-width="2" fill="none"/>
  <path d="M340 244 Q410 250 450 244" stroke="#ef4444" stroke-width="2" fill="none"/>
  <!-- Problems panel -->
  <rect x="648" y="36" width="152" height="444" fill="#181825"/>
  <text x="660" y="58" fill="#cdd6f4" font-family="sans-serif" font-size="11" font-weight="bold">PROBLEMS</text>
  <text x="660" y="80" fill="#ef4444" font-family="sans-serif" font-size="10">🚨 HALLUCINATION</text>
  <text x="660" y="95" fill="#94a3b8" font-family="sans-serif" font-size="9">Import 'fancy_lib'</text>
  <text x="660" y="107" fill="#94a3b8" font-family="sans-serif" font-size="9">does not exist</text>
  <text x="660" y="125" fill="#ef4444" font-family="sans-serif" font-size="10">🚨 SECURITY</text>
  <text x="660" y="140" fill="#94a3b8" font-family="sans-serif" font-size="9">Hardcoded API key</text>
  <text x="660" y="158" fill="#ef4444" font-family="sans-serif" font-size="10">🚨 SECURITY</text>
  <text x="660" y="173" fill="#94a3b8" font-family="sans-serif" font-size="9">SQL injection via f-string</text>
  <text x="660" y="191" fill="#ef4444" font-family="sans-serif" font-size="10">🚨 HALLUCINATION</text>
  <text x="660" y="206" fill="#94a3b8" font-family="sans-serif" font-size="9">'quick_sort_v2' not</text>
  <text x="660" y="218" fill="#94a3b8" font-family="sans-serif" font-size="9">defined</text>
  <!-- Status bar -->
  <rect y="468" width="800" height="12" fill="#6366f1"/>
  <text x="400" y="477" text-anchor="middle" fill="white" font-family="sans-serif" font-size="9" font-weight="bold">🛡️ Trust Score: 45/100 — 4 issues found</text>
</svg>
